<?xml version="1.0" encoding="UTF-8"?>
<svg id="Layer_1" xmlns="http://www.w3.org/2000/svg" version="1.1" viewBox="0 0 1024 1024">
  <!-- Generator: Adobe Illustrator 30.3.0, SVG Export Plug-In . SVG Version: 2.1.3 Build 182)  -->
  <path d="M366.43,261.23c-5.73.54-3.48,7.98-2.81,11.75,2.76,8.83,5.83,19.89,15.49,23.36,31.82,14.05,65.23,23.88,98.2,34.8,16.4,5.83,32.75,12.73,46.64,23.41,14.97,10.54,26.78,24.79,37.94,39.14,10.14,13.66,19.76,28,32.68,39.25,8.59,7.4,19.28,13.12,30.82,13.39,10.59.23,20.61-4.22,29.41-9.75,3.37-2.22,7.43-4.18,8.96-8.19-19.9-24.39-22.19-57.26-37.63-83.94-12.64-20.59-31.74-36.34-52.07-48.95-15.74-9.49-31.82-18.49-46.66-29.37-56.41-38.23-104.68-89.66-134.96-151.02-1.18-1.93-2.38-4.71-5.01-4.75-4.33,2.24-5.75,7.37-7.3,11.62-6.58,21.38-3.15,44.74,5.44,65.04,6.03,15.09,14.62,28.96,23.71,42.36-16.32-11.92-29.34-27.87-40.6-44.54-1.68-2.23-5.02-6.12-7.82-3.26-2.93,3.42-2.99,8.27-3.46,12.53-1.63,30.07,15.36,57.36,34.91,78.78-8.64-3.77-16.5-9.89-25.88-11.66Z"/>
  <path d="M876.96,394.55c-6-4.98-15.69-6.48-18.24-14.76-3.31-8.93-7.17-18.07-14.23-24.73-15.53-16.09-39.34-22.11-61.09-19.14-20.7,2.9-39.68,14.29-53.16,30.1-20.19,23.25-34.48,51.64-58.63,71.37-12.24,10.28-26.96,18.7-43.21,19.81-13.45.72-26.51-4.92-37.03-12.97-23.3-17.05-35.13-44.63-55.67-64.38-17.51-18.4-40.55-30.57-64.46-38.43-26.84-9-53.94-17.27-80.18-27.94-75.83-30.7-149.09-72.31-205.13-132.85-11.42-12.36-21.75-25.66-32.25-38.79-2.26-2.52-5.38-6.3-9.17-4.75-4.03,2.63-4.89,7.83-5.94,12.18-3.65,20.34,1.88,41.03,10.03,59.61,16.96,37.41,47.19,66.56,78.39,92.32-17.48-6.51-33.61-16.26-49.01-26.68-14.62-10.12-27.17-22.78-39.91-35.08-2.36-1.89-5.03-4.8-8.35-4.02-3.08,1.63-2.98,5.66-3.21,8.67-.7,23.56,8.72,46.55,23.03,64.95,22.11,29.18,53.47,49.61,86.08,65.31-26.04-2.15-50.55-12.84-73.15-25.4-2.76-1.25-5.86-2.85-8.95-1.94-2.83,3.53-1.18,8.34-.45,12.33,3.75,14.09,11.77,26.86,21.72,37.4,27.02,28.39,65.54,41.98,103.23,49.08-19.54,5.75-40.56,3.29-60.64,1.73-2.5-.06-6.01-.14-7.08,2.68-.11,5.25,3.28,9.75,6.1,13.92,10.04,13.41,24.38,23.16,39.98,29.04,24.65,9.51,51.58,10.45,77.67,9.09-11.98,7.99-25.83,12.66-39.81,15.7-3.12.43-5.6,3.93-3.41,6.75,5.34,7.87,14.67,11.77,23.38,14.68,24.19,7.86,49.93,2.39,73.31-5.54-8.34,9.53-19.18,16.42-30.49,21.9-3.43,1.62-8.47,4.99-5.56,9.32,7.53,9.56,19.98,14.16,31.87,14.73,15.34.68,29.78-5.41,43.41-11.71-6.77,9.41-16.7,15.68-25.6,22.84-2.61,1.71-2.38,5.61.42,7.01,12.05,7.3,27.41,7.56,40.44,2.78,9.26-2.9,17.11-8.72,25.27-13.75-4.69,8.66-12.18,15.32-17.76,23.32-2.3,5.84,5.74,7.23,9.86,7.46,22.45,2.6,42.72-9.4,59.89-22.4-7.76,17.55-24.8,30.96-43.88,33.7-2.63.22-3.92,2.82-5.38,4.65-15.21,21.64-31.48,43.34-53.66,58.32-29.57,19.82-63.17,32.72-97.09,42.95-32.32,9.44-65.44,16.25-98.87,20.23-10.45,1.42-21.33.87-31.33,4.63-3.68,1.3-7.31,5.07-5.92,9.26,1.94,5.89,7.1,9.89,12.05,13.24,18.02,11.75,40.64,11.84,61.32,9.88-16.38,10.26-36.74,14.41-50.34,28.72-6.3,6.67-.81,16.45,7.19,18.23,27.08,9.17,55.56-1.93,80.33-12.97-11.35,10.12-24.1,18.59-35.01,29.23-6.03,5.85-13.11,12.71-13.2,21.7.64,7.58,9.64,9.36,15.83,9.69,25.81,1.32,48.74-13.18,68.87-27.65-8.02,10.57-16.92,20.57-23.82,31.95-2.32,4.45-5.11,10.82-1.07,15.12,5.01,4.67,12.6,3.8,18.76,2.48,19.96-4.62,35.24-19.57,47.75-34.96-3,10.58-8.01,21.07-7.24,32.32.25,4.85,5.14,8.28,9.81,7.43,10.76-1.63,19.69-8.75,27.4-15.99,17.05-18.35,26.38-41.99,38.42-63.58,13.72-25.03,28.86-50.5,51.87-68.11,26.16-19.54,59.8-21.94,90.74-28.18,21.43-4.55,42.82-9.82,63.24-17.87,32.21-13.08,62.45-32.21,85.6-58.38,23.09-25.15,40.22-55.75,49.3-88.67,8.3-28.61,10.89-58.46,17.66-87.41,6.45-27.02,23.75-53.22,50.38-63.64,15.5-6.29,32.61-4.71,48.54-1.19-2.84-11.03-11.93-19.15-20.56-25.95ZM816.6,384.33c-2.98,8.95-16.69,10-21.36,1.98-4.96-6.67-.64-17.28,7.46-18.79,9.24-2.53,18.24,8.17,13.9,16.81Z"/>
</svg>